<svg xmlns="http://www.w3.org/2000/svg" width="45" height="45" viewBox="0 0 45 45">
  <metadata><?xpacket begin="﻿" id="W5M0MpCehiHzreSzNTczkc9d"?>
<x:xmpmeta xmlns:x="adobe:ns:meta/" x:xmptk="Adobe XMP Core 5.6-c142 79.160924, 2017/07/13-01:06:39        ">
   <rdf:RDF xmlns:rdf="http://www.w3.org/1999/02/22-rdf-syntax-ns#">
      <rdf:Description rdf:about=""/>
   </rdf:RDF>
</x:xmpmeta>
                                                                                                    
                                                                                                    
                                                                                                    
                                                                                                    
                                                                                                    
                                                                                                    
                                                                                                    
                                                                                                    
                                                                                                    
                                                                                                    
                                                                                                    
                                                                                                    
                                                                                                    
                                                                                                    
                                                                                                    
                                                                                                    
                                                                                                    
                                                                                                    
                                                                                                    
                                                                                                    
                           
<?xpacket end="w"?></metadata>
<defs>
    <style>
      .cls-1 {
        fill: #e64895;
      }

      .cls-1, .cls-2 {
        fill-rule: evenodd;
      }

      .cls-2 {
        fill: #fff;
      }
    </style>
  </defs>
  <path id="Rounded_Rectangle_4_copy" data-name="Rounded Rectangle 4 copy" class="cls-1" d="M7.175,0H37.363A7.179,7.179,0,0,1,44.5,7.223V37.778A7.179,7.179,0,0,1,37.363,45H7.175A7.179,7.179,0,0,1,.04,37.778V7.223A7.179,7.179,0,0,1,7.175,0Z"/>
  <path id="Dribbble" class="cls-2" d="M22.254,34.433A11.951,11.951,0,1,1,34.063,22.483,11.893,11.893,0,0,1,22.254,34.433Zm0-22.405A10.456,10.456,0,1,0,32.587,22.483,10.406,10.406,0,0,0,22.254,12.027ZM27,33.34a0.742,0.742,0,0,1-.735-0.69A33.976,33.976,0,0,0,22.685,21.12c-3.136-6.1-5.272-8.417-5.293-8.44a0.754,0.754,0,0,1,.027-1.056,0.732,0.732,0,0,1,1.043.026c0.092,0.1,2.283,2.456,5.533,8.781a34.792,34.792,0,0,1,3.738,12.1,0.745,0.745,0,0,1-.679.8ZM13.972,22.1a17.2,17.2,0,0,1-2.593-.164,0.745,0.745,0,0,1-.609-0.857,0.738,0.738,0,0,1,.847-0.618,25.154,25.154,0,0,0,10.863-1.283c5.761-1.928,6.478-5.053,6.484-5.084a0.739,0.739,0,0,1,1.45.282c-0.03.162-.8,3.99-7.471,6.221A28.5,28.5,0,0,1,13.972,22.1Zm1.156,9.225a0.734,0.734,0,0,1-.3-0.063,0.751,0.751,0,0,1-.38-0.984c0.071-.163,1.788-4.009,7.206-6.493a16.2,16.2,0,0,1,11.437-.9,0.75,0.75,0,0,1,.451.953,0.735,0.735,0,0,1-.94.458h0a14.978,14.978,0,0,0-10.339.847c-4.907,2.249-6.447,5.7-6.462,5.731A0.739,0.739,0,0,1,15.128,31.322Z"/>
</svg>
