<svg xmlns="http://www.w3.org/2000/svg" width="45" height="45" viewBox="0 0 45 45">
  <metadata><?xpacket begin="﻿" id="W5M0MpCehiHzreSzNTczkc9d"?>
<x:xmpmeta xmlns:x="adobe:ns:meta/" x:xmptk="Adobe XMP Core 5.6-c142 79.160924, 2017/07/13-01:06:39        ">
   <rdf:RDF xmlns:rdf="http://www.w3.org/1999/02/22-rdf-syntax-ns#">
      <rdf:Description rdf:about=""/>
   </rdf:RDF>
</x:xmpmeta>
                                                                                                    
                                                                                                    
                                                                                                    
                                                                                                    
                                                                                                    
                                                                                                    
                                                                                                    
                                                                                                    
                                                                                                    
                                                                                                    
                                                                                                    
                                                                                                    
                                                                                                    
                                                                                                    
                                                                                                    
                                                                                                    
                                                                                                    
                                                                                                    
                                                                                                    
                                                                                                    
                           
<?xpacket end="w"?></metadata>
<defs>
    <style>
      .cls-1 {
        fill: #345bb4;
      }

      .cls-1, .cls-2 {
        fill-rule: evenodd;
      }

      .cls-2 {
        fill: #fff;
      }
    </style>
  </defs>
  <path id="Rounded_Rectangle_4" data-name="Rounded Rectangle 4" class="cls-1" d="M7.13,0H37.318a7.179,7.179,0,0,1,7.135,7.222V37.778A7.179,7.179,0,0,1,37.318,45H7.13A7.179,7.179,0,0,1-.006,37.778V7.223A7.179,7.179,0,0,1,7.13,0Z"/>
  <path id="Facebook" class="cls-2" d="M24.117,12.046c0.089,0,.141,0,0.141,0h1.961l-0.01,2.26H24.261a0.926,0.926,0,0,0-1.047.918v3.583h3.793l-0.529,2.257H23.2v11.3H20.951l0-11.3h-2.99l-0.006-2.257h3V15.3a2.989,2.989,0,0,1,3.166-3.253m2.1,0h0m-2.105-1.511h0a5.12,5.12,0,0,0-2.594.694A4.416,4.416,0,0,0,19.449,15.3V17.3h-1.5a1.5,1.5,0,0,0-1.5,1.512l0.006,2.257a1.5,1.5,0,0,0,1.5,1.5h1.488l0,9.789a1.5,1.5,0,0,0,1.5,1.507H23.2a1.5,1.5,0,0,0,1.5-1.507V22.575h1.774a1.5,1.5,0,0,0,1.441-1.082l0.529-2.257A1.507,1.507,0,0,0,27.006,17.3H24.716V15.817h1.493a1.5,1.5,0,0,0,1.5-1.5l0.01-2.184c0-.028,0-0.055,0-0.083a1.5,1.5,0,0,0-1.5-1.507H24.3c-0.043,0-.1,0-0.183,0h0Z"/>
</svg>
