<svg xmlns="http://www.w3.org/2000/svg" width="45" height="45" viewBox="0 0 45 45">
  <metadata><?xpacket begin="﻿" id="W5M0MpCehiHzreSzNTczkc9d"?>
<x:xmpmeta xmlns:x="adobe:ns:meta/" x:xmptk="Adobe XMP Core 5.6-c142 79.160924, 2017/07/13-01:06:39        ">
   <rdf:RDF xmlns:rdf="http://www.w3.org/1999/02/22-rdf-syntax-ns#">
      <rdf:Description rdf:about=""/>
   </rdf:RDF>
</x:xmpmeta>
                                                                                                    
                                                                                                    
                                                                                                    
                                                                                                    
                                                                                                    
                                                                                                    
                                                                                                    
                                                                                                    
                                                                                                    
                                                                                                    
                                                                                                    
                                                                                                    
                                                                                                    
                                                                                                    
                                                                                                    
                                                                                                    
                                                                                                    
                                                                                                    
                                                                                                    
                                                                                                    
                           
<?xpacket end="w"?></metadata>
<defs>
    <style>
      .cls-1 {
        fill: #00b4ff;
      }

      .cls-1, .cls-2 {
        fill-rule: evenodd;
      }

      .cls-2 {
        fill: #fff;
      }
    </style>
  </defs>
  <path id="Rounded_Rectangle_4_copy_2" data-name="Rounded Rectangle 4 copy 2" class="cls-1" d="M7.671,0H37.859a7.179,7.179,0,0,1,7.135,7.222V37.778A7.179,7.179,0,0,1,37.859,45H7.671A7.179,7.179,0,0,1,.536,37.778V7.223A7.179,7.179,0,0,1,7.671,0Z"/>
  <path id="Twitter" class="cls-2" d="M26.544,14.73A4.1,4.1,0,0,1,29.5,15.967a8.286,8.286,0,0,0,2.566-.95,3.953,3.953,0,0,1-1.776,2.165,8.3,8.3,0,0,0,2.322-.618,8.111,8.111,0,0,1-2.017,2.027C30.6,18.759,30.6,18.929,30.6,19.1A11.235,11.235,0,0,1,19.1,30.236a11.717,11.717,0,0,1-6.2-1.76,8.13,8.13,0,0,0,.964.055,8.278,8.278,0,0,0,5.022-1.677,4.028,4.028,0,0,1-3.776-2.718,4.166,4.166,0,0,0,1.825-.066,3.95,3.95,0,0,1-3.243-3.838v-0.05a4.128,4.128,0,0,0,1.832.49,3.882,3.882,0,0,1-1.8-3.258,3.8,3.8,0,0,1,.547-1.967,11.617,11.617,0,0,0,8.332,4.089,3.8,3.8,0,0,1-.105-0.892,3.98,3.98,0,0,1,4.044-3.915m6.062,1.834h0m-6.065-3.239a5.415,5.415,0,0,0-5.4,4.618,10.2,10.2,0,0,1-5.792-3.4,1.406,1.406,0,0,0-1.076-.5c-0.036,0-.073,0-0.111,0a1.406,1.406,0,0,0-1.094.675,5.214,5.214,0,0,0-.42,4.518,1.406,1.406,0,0,0-.363.942v0.05a5.252,5.252,0,0,0,1.449,3.609,1.394,1.394,0,0,0,.039.734,5.284,5.284,0,0,0,1.616,2.386,7.079,7.079,0,0,1-1.526.165,6.657,6.657,0,0,1-.8-0.046,1.5,1.5,0,0,0-.168-0.01,1.4,1.4,0,0,0-.742,2.6A13.138,13.138,0,0,0,19.1,31.641,12.6,12.6,0,0,0,32.006,19.278,9.431,9.431,0,0,0,33.73,17.41a1.389,1.389,0,0,0,.284-0.845,1.4,1.4,0,0,0-.6-1.154A1.406,1.406,0,0,0,31.358,13.8a6.772,6.772,0,0,1-1.486.632,5.566,5.566,0,0,0-3.328-1.107h0Z"/>
</svg>
